<?xml version="1.0" encoding="UTF-8"?>
<svg xmlns="http://www.w3.org/2000/svg" xmlns:xlink="http://www.w3.org/1999/xlink" width="3750" height="3750" viewBox="0 0 3750 3750">
<rect x="-375" y="-375" width="4500" height="4500" fill="rgb(92.576599%, 92.576599%, 92.576599%)" fill-opacity="1"/>
<path fill-rule="nonzero" fill="rgb(10.205078%, 10.205078%, 10.205078%)" fill-opacity="1" d="M 791.917969 2645.300781 C 779.132812 2645.300781 767.796875 2648.351562 758.007812 2654.449219 C 748.289062 2660.519531 740.8125 2669.171875 735.59375 2680.378906 C 730.378906 2691.601562 727.828125 2704.558594 727.828125 2719.269531 L 727.828125 2733.851562 C 728.328125 2748.210938 730.679688 2760.859375 735.808594 2771.71875 C 740.953125 2782.570312 748.277344 2790.90625 757.707031 2796.835938 C 767.21875 2802.691406 778.160156 2805.628906 790.59375 2805.628906 C 808.386719 2805.628906 822.648438 2800.976562 833.367188 2791.707031 C 844.082031 2782.351562 850.253906 2769.394531 851.824219 2752.742188 L 824.796875 2752.742188 C 823.347656 2763.898438 820 2771.832031 814.625 2776.625 C 809.261719 2781.421875 801.242188 2783.792969 790.597656 2783.792969 C 778.949219 2783.792969 770.082031 2779.34375 764.011719 2770.46875 C 758.019531 2761.609375 755 2748.808594 755 2731.941406 L 755 2718.101562 C 755 2701.449219 758.347656 2688.808594 764.664062 2680.230469 C 771.027344 2671.589844 780.117188 2667.261719 791.910156 2667.261719 C 802.058594 2667.261719 809.695312 2669.808594 814.910156 2674.800781 C 820.195312 2679.75 823.507812 2687.761719 824.796875 2698.96875 L 851.828125 2698.96875 C 850.128906 2681.890625 843.945312 2668.710938 833.445312 2659.339844 C 822.9375 2649.96875 809.132812 2645.289062 791.914062 2645.289062 Z M 1063.5 2647.449219 L 1063.5 2803.53125 L 1090.671875 2803.53125 L 1090.671875 2743.390625 L 1120.851562 2743.390625 L 1152.199219 2803.53125 L 1181.210938 2803.53125 L 1181.210938 2802.132812 L 1146.191406 2737.089844 C 1155.191406 2733.289062 1162.210938 2727.910156 1167.210938 2720.910156 C 1172.289062 2713.839844 1174.828125 2705.039062 1174.828125 2694.609375 C 1174.828125 2679.320312 1169.878906 2667.679688 1160.101562 2659.601562 C 1150.308594 2651.519531 1136.429688 2647.441406 1118.429688 2647.441406 Z M 1388.039062 2647.449219 L 1388.039062 2803.53125 L 1490.070312 2803.53125 L 1490.070312 2781.921875 L 1415.140625 2781.921875 L 1415.140625 2733.871094 L 1479.230469 2733.871094 L 1479.230469 2712.421875 L 1415.140625 2712.421875 L 1415.140625 2669.351562 L 1489.339844 2669.351562 L 1489.339844 2647.449219 Z M 1744.660156 2647.449219 L 1685.699219 2803.53125 L 1713.898438 2803.53125 L 1726.570312 2767.199219 L 1786.988281 2767.199219 L 1799.730469 2803.53125 L 1828.078125 2803.53125 L 1768.96875 2647.449219 Z M 2009.359375 2647.449219 L 2009.359375 2669.351562 L 2057.550781 2669.351562 L 2057.550781 2803.53125 L 2084.511719 2803.53125 L 2084.511719 2669.351562 L 2133.140625 2669.351562 L 2133.140625 2647.449219 Z M 2342.679688 2803.53125 L 2369.710938 2803.53125 L 2369.710938 2647.449219 L 2342.679688 2647.449219 Z M 2576.621094 2647.449219 L 2632.578125 2803.53125 L 2658.871094 2803.53125 L 2714.980469 2647.449219 L 2685.230469 2647.449219 L 2645.539062 2769.542969 L 2606.289062 2647.449219 Z M 2920.039062 2647.449219 L 2920.039062 2803.53125 L 3022.148438 2803.53125 L 3022.148438 2781.921875 L 2947.230469 2781.921875 L 2947.230469 2733.871094 L 3011.308594 2733.871094 L 3011.308594 2712.421875 L 2947.230469 2712.421875 L 2947.230469 2669.351562 L 3021.359375 2669.351562 L 3021.359375 2647.449219 Z M 1090.671875 2669.351562 L 1119.238281 2669.351562 C 1128.660156 2669.351562 1135.761719 2671.898438 1140.480469 2676.449219 C 1145.28125 2681 1147.660156 2687.421875 1147.660156 2695.78125 C 1147.660156 2703.789062 1145.101562 2710.109375 1139.949219 2714.761719 C 1134.808594 2719.308594 1127.640625 2721.640625 1118.5 2721.640625 L 1090.660156 2721.640625 Z M 1756.738281 2680.628906 L 1779.378906 2745.378906 L 1734.179688 2745.378906 Z M 1756.738281 2680.628906 "/>
<path fill-rule="nonzero" fill="rgb(10.205078%, 10.205078%, 10.205078%)" fill-opacity="1" d="M 1021.039062 944.390625 C 1011.960938 944.359375 1003.25 947.929688 996.808594 954.320312 C 990.371094 960.71875 986.742188 969.410156 986.722656 978.488281 L 986.722656 1490.941406 C 986.6875 1500.058594 990.289062 1508.808594 996.730469 1515.25 C 1003.179688 1521.691406 1011.921875 1525.300781 1021.039062 1525.261719 C 1030.101562 1525.21875 1038.769531 1521.589844 1045.160156 1515.148438 C 1051.539062 1508.710938 1055.101562 1500.011719 1055.058594 1490.941406 L 1055.058594 1012.730469 L 1191.808594 1012.730469 C 1210.648438 1012.648438 1225.878906 997.328125 1225.839844 978.488281 C 1225.800781 959.699219 1210.589844 944.46875 1191.808594 944.390625 Z M 1362.511719 944.390625 C 1343.71875 944.46875 1328.519531 959.699219 1328.480469 978.488281 L 1328.480469 1627.621094 L 1021.039062 1627.621094 C 1011.929688 1627.578125 1003.179688 1631.191406 996.730469 1637.628906 C 990.289062 1644.070312 986.6875 1652.820312 986.722656 1661.929688 L 986.722656 2003.410156 C 986.722656 2185.621094 1082.820312 2286.28125 1176.390625 2333.070312 C 1269.949219 2379.851562 1362.511719 2379.46875 1362.511719 2379.46875 L 2387.5 2379.46875 C 2396.609375 2379.511719 2405.359375 2375.910156 2411.800781 2369.460938 C 2418.238281 2363.019531 2421.839844 2354.269531 2421.808594 2345.160156 L 2421.808594 1695.960938 L 2729.179688 1695.960938 C 2747.96875 1695.921875 2763.199219 1680.71875 2763.28125 1661.929688 L 2763.28125 1320.179688 C 2763.28125 1137.960938 2667.179688 1037.578125 2573.621094 990.800781 C 2480.058594 944.019531 2387.5 944.390625 2387.5 944.390625 Z M 1396.820312 1012.730469 L 2387.5 1012.730469 C 2387.5 1012.730469 2465.789062 1013.230469 2543.058594 1051.851562 C 2620.320312 1090.480469 2695.160156 1160.738281 2695.160156 1320.179688 L 2695.160156 1627.621094 L 2413.179688 1627.621094 C 2412.179688 1599.648438 2413.480469 1509.339844 2353.96875 1390.28125 C 2285.828125 1254.011719 2142.660156 1115.160156 1875.039062 1115.160156 C 1607.980469 1115.160156 1465.128906 1253.589844 1396.820312 1389.570312 Z M 2472.949219 1115.160156 C 2407.300781 1115.160156 2353.398438 1169.058594 2353.398438 1234.710938 C 2353.398438 1300.371094 2407.300781 1354.488281 2472.949219 1354.488281 C 2538.609375 1354.488281 2592.511719 1300.371094 2592.511719 1234.710938 C 2592.511719 1169.058594 2538.609375 1115.160156 2472.949219 1115.160156 Z M 1875.039062 1183.5 C 2119.890625 1183.5 2232.929688 1300.871094 2292.910156 1420.839844 C 2352.898438 1540.808594 2353.398438 1661.929688 2353.398438 1661.929688 C 2353.398438 1661.929688 2352.828125 1782.839844 2292.910156 1902.808594 C 2232.929688 2022.78125 2119.890625 2140.078125 1875.039062 2140.078125 C 1630.191406 2140.078125 1517.078125 2022.78125 1457.089844 1902.808594 C 1397.109375 1782.839844 1396.820312 1661.929688 1396.820312 1661.929688 C 1396.820312 1661.929688 1397.121094 1540.808594 1457.089844 1420.839844 C 1517.078125 1300.871094 1630.191406 1183.5 1875.039062 1183.5 Z M 2472.949219 1183.5 C 2501.929688 1183.5 2524.171875 1205.738281 2524.171875 1234.710938 C 2524.171875 1263.699219 2501.929688 1286.148438 2472.949219 1286.148438 C 2443.96875 1286.148438 2421.808594 1263.699219 2421.808594 1234.710938 C 2421.808594 1205.738281 2443.96875 1183.5 2472.949219 1183.5 Z M 1875.039062 1286.148438 C 1667.429688 1286.148438 1499.25 1454.320312 1499.25 1661.929688 C 1499.25 1869.539062 1667.429688 2037.710938 1875.039062 2037.710938 C 2082.648438 2037.710938 2250.820312 1869.539062 2250.820312 1661.929688 C 2250.820312 1454.320312 2082.648438 1286.148438 1875.039062 1286.148438 Z M 1875.039062 1354.488281 C 2045.980469 1354.488281 2182.699219 1490.988281 2182.699219 1661.929688 C 2182.699219 1832.871094 2045.980469 1969.371094 1875.039062 1969.371094 C 1704.101562 1969.371094 1567.589844 1832.871094 1567.589844 1661.929688 C 1567.589844 1490.988281 1704.101562 1354.488281 1875.039062 1354.488281 Z M 1875.039062 1525.261719 C 1799.921875 1525.261719 1738.289062 1586.808594 1738.289062 1661.929688 C 1738.289062 1737.050781 1799.921875 1798.609375 1875.039062 1798.609375 C 1950.160156 1798.609375 2011.710938 1737.050781 2011.710938 1661.929688 C 2011.710938 1586.808594 1950.160156 1525.261719 1875.039062 1525.261719 Z M 1875.039062 1593.589844 C 1913.480469 1593.589844 1943.378906 1623.488281 1943.378906 1661.929688 C 1943.378906 1700.371094 1913.480469 1730.269531 1875.039062 1730.269531 C 1836.589844 1730.269531 1806.628906 1700.371094 1806.628906 1661.929688 C 1806.628906 1623.488281 1836.589844 1593.589844 1875.039062 1593.589844 Z M 1055.058594 1695.960938 L 1337.039062 1695.960938 C 1338.039062 1723.808594 1336.480469 1814.140625 1396.039062 1933.300781 C 1464.171875 2069.570312 1607.410156 2208.421875 1875.039062 2208.421875 C 2142.289062 2208.421875 2285.148438 2069.871094 2353.398438 1933.800781 L 2353.398438 2311.058594 L 1362.511719 2311.058594 C 1362.511719 2311.058594 1284.421875 2310.558594 1207.160156 2272.011719 C 1129.890625 2233.378906 1055.058594 2162.839844 1055.058594 2003.410156 Z M 2729.179688 1798.609375 C 2710.421875 1798.679688 2695.230469 1813.871094 2695.160156 1832.628906 L 2695.160156 2311.058594 L 2558.480469 2311.058594 C 2549.410156 2311.019531 2540.691406 2314.601562 2534.25 2320.988281 C 2527.808594 2327.390625 2524.191406 2336.089844 2524.171875 2345.160156 C 2524.128906 2354.269531 2527.730469 2363.019531 2534.179688 2369.460938 C 2540.621094 2375.910156 2549.371094 2379.511719 2558.480469 2379.46875 L 2729.179688 2379.46875 C 2738.261719 2379.449219 2746.949219 2375.820312 2753.351562 2369.390625 C 2759.75 2362.949219 2763.320312 2354.230469 2763.28125 2345.160156 L 2763.28125 1832.628906 C 2763.199219 1813.839844 2747.96875 1798.640625 2729.179688 1798.609375 Z M 2729.179688 1798.609375 "/>
</svg>
